# xmcd
#
# Track frame offsets:
#	150
#	20146
#	42801
#	57564
#	82110
#	112096
#	129363
#	152804
#	172234
#	200374
#
# Disc length: 2872 seconds
#
# Revision: 0
# Processed by: cddbd v1.5.2PL0 Copyright (c) Steve Scherf et al.
# Submitted via: EZCDAudioConverter 8.0.2.1
#
DISCID=8f0b360a
DTITLE=Various Artist - st. Thanh Nga, Nguyễn Hoàng Dũng. Tình Còn Trong Mắt
DYEAR=2011
DGENRE=
TTITLE0=Hương Lan - Tìm nhau
TTITLE1=Nam Khánh - Trăng khuyết
TTITLE2=Tóc Tiên - Lạnh hơn mùa đông
TTITLE3=Vinh Hiển - Bên bờ cỏ rối
TTITLE4=Quỳnh Lan - Dường như
TTITLE5=X-Men - Mùa xuân gọi em
TTITLE6=Hương Lan - Trách con đò ngang
TTITLE7=Mây Trắng - Hạnh phúc giữa đời
TTITLE8=Duy Quang - Mộng tình không
TTITLE9=Giang Hồng Ngọc - Tình Còn Trong Mắt
EXTD=
EXTT0=
EXTT1=
EXTT2=
EXTT3=
EXTT4=
EXTT5=
EXTT6=
EXTT7=
EXTT8=
EXTT9=
PLAYORDER=
